<?xml version="1.0" encoding="utf-8"?>
<!-- Generator: Adobe Illustrator 16.0.3, SVG Export Plug-In . SVG Version: 6.00 Build 0)  -->
<!DOCTYPE svg PUBLIC "-//W3C//DTD SVG 1.1//EN" "http://www.w3.org/Graphics/SVG/1.1/DTD/svg11.dtd">
<svg version="1.1" id="Layer_1" xmlns="http://www.w3.org/2000/svg" xmlns:xlink="http://www.w3.org/1999/xlink" x="0px" y="0px"
	 width="266.529px" height="34.521px" viewBox="0 0 266.529 34.521" enable-background="new 0 0 266.529 34.521"
	 xml:space="preserve">
<g>
	<path fill="#FFFFFF" d="M3.561,2C2.695,2,2,2.708,2,3.568v28.391c0,0.86,0.695,1.562,1.561,1.562H13
		c0.861,0,1.567-0.702,1.567-1.562V3.568C14.567,2.708,13.861,2,13,2H3.561z"/>
	<path fill="#FFFFFF" d="M129.816,2c-0.875,0-1.562,0.708-1.562,1.568v14.45c0,0.597-0.024,1.003-0.039,1.232
		c-0.147-0.185-0.424-0.533-0.767-1.022L116.61,3.233C116.119,2.561,115.054,2,114.208,2h-11.194c-0.852,0-1.565,0.708-1.565,1.568
		v28.391c0,0.86,0.713,1.562,1.565,1.562h8.925c0.861,0,1.557-0.702,1.557-1.562V17.346c0-0.589,0.016-0.992,0.03-1.222
		c0.139,0.193,0.401,0.521,0.742,0.983l11.414,15.201c0.493,0.675,1.592,1.212,2.422,1.212h10.63c0.862,0,1.562-0.702,1.562-1.562
		V3.568c0-0.86-0.7-1.568-1.562-1.568H129.816z"/>
	<path fill="#FFFFFF" d="M72.851,2C72,2,71.048,2.642,70.713,3.413L59.99,28.615c-0.134,0.318-0.348,0.51-0.585,0.543
		c-0.253,0.038-0.506-0.105-0.712-0.371L48.03,15.294c-0.47-0.591-0.383-1.468,0.178-1.961L59.99,3.148
		c0.337-0.284,0.473-0.565,0.382-0.79C60.289,2.125,60.002,2,59.575,2H46.089c-0.834,0-1.982,0.474-2.579,1.045l-9.385,9.029
		c-0.245,0.229-0.479,0.331-0.634,0.263c-0.151-0.063-0.252-0.294-0.252-0.64V3.568c0-0.86-0.689-1.568-1.564-1.568h-9.443
		c-0.868,0-1.558,0.708-1.558,1.568v28.391c0,0.86,0.69,1.562,1.558,1.562h9.443c0.875,0,1.564-0.702,1.564-1.562v-5.496
		c0-0.78,0.481-1.839,1.063-2.354l1.892-1.664c0.271-0.228,0.605-0.342,0.935-0.304c0.337,0.037,0.638,0.217,0.853,0.516l6.858,9.63
		c0.486,0.678,1.555,1.233,2.382,1.233h22.521c0.845,0,1.77-0.641,2.066-1.444l0.31-0.842c0.27-0.723,1.101-1.311,1.865-1.311h9.967
		c0.771,0,1.61,0.587,1.876,1.311l0.313,0.842c0.282,0.803,1.217,1.444,2.057,1.444h10.228c0.422,0,0.767-0.145,0.951-0.444
		c0.191-0.281,0.208-0.658,0.032-1.039L87.23,3.413C86.897,2.642,85.943,2,85.1,2H72.851z M75.899,21.736
		c-0.104-0.146-0.149-0.31-0.149-0.488c0-0.134,0.022-0.261,0.079-0.394l2.717-7.859c0.198-0.549,0.345-0.938,0.424-1.167
		c0.09,0.221,0.231,0.591,0.422,1.167l2.729,7.859c0.058,0.133,0.067,0.26,0.067,0.394c0,0.178-0.046,0.343-0.14,0.488
		c-0.173,0.229-0.453,0.354-0.817,0.354h-4.524C76.347,22.089,76.066,21.965,75.899,21.736z"/>
	<path fill="#FFFFFF" d="M164.704,12.375c-0.482-1.386-0.661-1.903-1.469-1.903s-0.989,0.518-1.469,1.903l-2.886,8.316
		c-0.223,0.642-0.144,1.301,0.217,1.809s0.958,0.798,1.638,0.798h5.001c0.68,0,1.276-0.291,1.637-0.799
		c0.361-0.507,0.441-1.167,0.217-1.809L164.704,12.375z M165.735,22.225h-5.001c-0.688,0-1.066-0.532-0.841-1.182l2.888-8.316
		c0.225-0.649,0.429-1.182,0.454-1.182c0.024,0,0.228,0.533,0.455,1.182l2.885,8.316C166.801,21.693,166.422,22.225,165.735,22.225z
		 M183.793,32.371L171.358,3.165c-0.27-0.633-1.053-1.151-1.74-1.151h-12.767c-0.687,0-1.472,0.518-1.74,1.151l-12.437,29.207
		c-0.269,0.631,0.075,1.15,0.761,1.15h10.738c0.687,0,1.444-0.528,1.68-1.174l0.464-1.27c0.237-0.646,0.993-1.175,1.681-1.175
		h10.473c0.687,0,1.444,0.529,1.68,1.175l0.465,1.27c0.236,0.646,0.993,1.174,1.68,1.174h10.736
		C183.721,33.521,184.063,33.002,183.793,32.371z M172.296,32.448c-0.239,0-0.591-0.246-0.673-0.47l-0.464-1.271
		c-0.393-1.071-1.548-1.878-2.688-1.878h-10.473c-1.14,0-2.297,0.808-2.689,1.879l-0.463,1.269
		c-0.082,0.224-0.434,0.471-0.672,0.471c0,0-9.625-0.002-10.364-0.002c0.287-0.674,12.287-28.86,12.287-28.86
		c0.103-0.237,0.497-0.499,0.754-0.499h12.767c0.258,0,0.651,0.261,0.752,0.499c0,0,11.983,28.148,12.288,28.863
		C181.961,32.448,172.296,32.448,172.296,32.448z"/>
	<path fill="#FFFFFF" d="M216.348,25.049h-16.781c-0.688,0-1.251-0.563-1.251-1.251V3.265c0-0.688-0.563-1.251-1.25-1.251h-9.943
		c-0.687,0-1.25,0.563-1.25,1.251V32.27c0,0.689,0.563,1.251,1.25,1.251h29.226c0.688,0,1.251-0.562,1.251-1.251V26.3
		C217.599,25.612,217.036,25.049,216.348,25.049z M216.525,32.27c0,0.094-0.083,0.178-0.177,0.178h-29.226
		c-0.094,0-0.176-0.084-0.176-0.178V3.265c0-0.094,0.082-0.178,0.176-0.178h9.943c0.095,0,0.177,0.083,0.177,0.178v20.533
		c0,1.282,1.044,2.325,2.325,2.325h16.781c0.094,0,0.177,0.083,0.177,0.177V32.27z"/>
	<path fill="#FFFFFF" d="M264.278,2.014h-15.017c-0.688,0-1.403,0.542-1.591,1.204l-4.484,15.905
		c-0.186,0.663-0.359,1.205-0.383,1.205c-0.024,0-0.197-0.542-0.383-1.205l-4.485-15.905c-0.187-0.662-0.902-1.204-1.591-1.204
		h-15.016c-0.688,0-1.25,0.563-1.25,1.251V32.27c0,0.689,0.563,1.251,1.25,1.251h8.795c0.688,0,1.25-0.562,1.25-1.251V12.267
		c0-0.688,0.021-1.251,0.044-1.251c0.025,0,0.204,0.54,0.398,1.2l5.913,20.104c0.194,0.661,0.916,1.201,1.604,1.201h6.941
		c0.688,0,1.409-0.54,1.604-1.201l5.914-20.104c0.194-0.66,0.373-1.2,0.396-1.2c0.025,0,0.043,0.563,0.043,1.251V32.27
		c0,0.689,0.564,1.251,1.251,1.251h8.796c0.688,0,1.251-0.562,1.251-1.251V3.265C265.529,2.577,264.966,2.014,264.278,2.014z
		 M264.456,32.27c0,0.094-0.083,0.178-0.177,0.178h-8.796c-0.094,0-0.176-0.084-0.176-0.178V12.267c0-1.35,0-2.325-1.118-2.325
		c-0.846,0-1.016,0.577-1.427,1.971l-5.914,20.105c-0.06,0.205-0.359,0.43-0.574,0.43h-6.941c-0.213,0-0.513-0.225-0.575-0.43
		l-5.912-20.105c-0.411-1.394-0.581-1.97-1.428-1.97c-1.117,0-1.117,0.975-1.117,2.325V32.27c0,0.094-0.083,0.178-0.177,0.178
		h-8.795c-0.094,0-0.177-0.084-0.177-0.178V3.265c0-0.094,0.083-0.178,0.177-0.178h15.016c0.21,0,0.501,0.222,0.56,0.422
		l4.484,15.905c0.394,1.405,0.56,1.987,1.416,1.987c0.857,0,1.022-0.582,1.416-1.987l4.484-15.904
		c0.057-0.201,0.348-0.422,0.558-0.422h15.017c0.094,0,0.177,0.083,0.177,0.178V32.27z"/>
</g>
</svg>
